# xmcd
#
# Track frame offsets:
#	150
#	17025
#	30453
#	48478
#	67316
#	79816
#	94191
#	111043
#	121948
#	132669
#
# Disc length: 2096 seconds
#
# Revision: 0
# Processed by: cddbd v1.5.2PL0 Copyright (c) Steve Scherf et al.
# Submitted via: dBpowerAMP V4.0
#
DISCID=88082e0a
DTITLE=Keith Frank and the Soileau Zydeco Band - To Be Perfectly Frank
DYEAR=1900
DGENRE=Country
TTITLE0=Soileau Stomp
TTITLE1=Flames of Hell
TTITLE2=If I Had a Hammer
TTITLE3=Keith's Theme Song '07
TTITLE4=Paul Frank Special
TTITLE5=Aunte' A Dell
TTITLE6=Josephine Is Not My Wife
TTITLE7=Who Stole the Pies?
TTITLE8=Lanse De Prien Noir
TTITLE9=Love the One You're With
EXTD=
EXTT0=
EXTT1=
EXTT2=
EXTT3=
EXTT4=
EXTT5=
EXTT6=
EXTT7=
EXTT8=
EXTT9=
PLAYORDER=
